<svg width="100" height="100" viewBox="0 0 100 100" fill="none" xmlns="http://www.w3.org/2000/svg">
<rect width="100" height="100"/>
<path fill-rule="evenodd" clip-rule="evenodd" d="M21.2427 69.3259C18.8995 71.669 18.8995 75.468 21.2427 77.8111C23.5858 80.1543 27.3848 80.1543 29.7279 77.8111L49.5269 58.0122L69.3259 77.8112C71.6691 80.1543 75.4681 80.1543 77.8112 77.8112C80.1543 75.468 80.1543 71.6691 77.8112 69.3259L58.0122 49.5269L77.8112 29.7279C80.1543 27.3847 80.1543 23.5857 77.8112 21.2426C75.468 18.8994 71.6691 18.8994 69.3259 21.2426L49.5269 41.0416L29.7279 21.2426C27.3848 18.8995 23.5858 18.8995 21.2427 21.2426C18.8995 23.5858 18.8995 27.3848 21.2427 29.7279L41.0416 49.5269L21.2427 69.3259Z" fill="black"/>
</svg>
