<svg width="100" height="100" viewBox="0 0 100 100" fill="none" xmlns="http://www.w3.org/2000/svg">
<rect width="100" height="100"/>
<path fill-rule="evenodd" clip-rule="evenodd" d="M10 26C10 22.6863 12.6863 20 16 20H84C87.3137 20 90 22.6863 90 26C90 29.3137 87.3137 32 84 32H16C12.6863 32 10 29.3137 10 26ZM10 74C10 70.6863 12.6863 68 16 68H84C87.3137 68 90 70.6863 90 74C90 77.3137 87.3137 80 84 80H16C12.6863 80 10 77.3137 10 74ZM16 44C12.6863 44 10 46.6863 10 50C10 53.3137 12.6863 56 16 56H84C87.3137 56 90 53.3137 90 50C90 46.6863 87.3137 44 84 44H16Z" fill="black"/>
</svg>
